<svg xmlns="http://www.w3.org/2000/svg" version="1.1" xmlns:xlink="http://www.w3.org/1999/xlink" xmlns:svgjs="http://svgjs.dev/svgjs" width="1500" height="935" viewBox="0 0 1500 935"><g transform="matrix(1,0,0,1,-0.9090909090909918,0.3785425101215196)"><svg viewBox="0 0 396 247" data-background-color="#ffffff" preserveAspectRatio="xMidYMid meet" height="935" width="1500" xmlns="http://www.w3.org/2000/svg" xmlns:xlink="http://www.w3.org/1999/xlink"><g id="tight-bounds" transform="matrix(1,0,0,1,0.2400000000000091,-0.09999999999999432)"><svg viewBox="0 0 395.52 247.2" height="247.2" width="395.52"><g><svg></svg></g><g><svg viewBox="0 0 395.52 247.2" height="247.2" width="395.52"><g transform="matrix(1,0,0,1,75.54432,63.26143815498479)"><svg viewBox="0 0 244.43135999999998 120.67712369003041" height="120.67712369003041" width="244.43135999999998"><g><svg viewBox="0 0 244.43135999999998 120.67712369003041" height="120.67712369003041" width="244.43135999999998"><g><svg viewBox="0 0 244.43135999999998 120.67712369003041" height="120.67712369003041" width="244.43135999999998"><g><svg viewBox="0 0 244.43135999999998 120.67712369003041" height="120.67712369003041" width="244.43135999999998"><g id="textblocktransform"><svg viewBox="0 0 244.43135999999998 120.67712369003041" height="120.67712369003041" width="244.43135999999998" id="textblock"><g><svg viewBox="0 0 244.43135999999998 65.08747413268411" height="65.08747413268411" width="244.43135999999998"><g transform="matrix(1,0,0,1,0,0)"><svg width="244.43135999999998" viewBox="2.73 -36.23 160.45000000000002 42.72" height="65.08747413268411" data-palette-color="#d63484"><path d="M35.35 0.78L35.35 0.78Q29.44 0.68 23.27 0.49 17.09 0.29 11.18-0.39L11.18-0.39Q10.5-0.49 9.64-0.56 8.79-0.63 8.11-0.88L8.11-0.88Q6.69-1.42 5.88-2.08 5.08-2.73 4.64-3.59 4.2-4.44 4-5.49 3.81-6.54 3.66-7.86L3.66-7.86Q3.22-11.28 2.98-14.72 2.73-18.16 2.73-21.63L2.73-21.63Q2.73-22.27 2.76-23.17 2.78-24.07 2.86-25.05 2.93-26.03 3.08-26.9 3.22-27.78 3.47-28.37L3.47-28.37Q4.64-30.91 6.91-32.45 9.18-33.98 11.91-34.84 14.65-35.69 17.55-35.96 20.46-36.23 22.9-36.23L22.9-36.23Q28.13-36.23 33.35-35.21L33.35-35.21 33.74-24.76Q28.76-26.32 23.44-26.32L23.44-26.32Q22.46-26.32 20.85-26.22 19.24-26.12 17.55-25.85 15.87-25.59 14.4-25.07 12.94-24.56 12.35-23.68L12.35-23.68Q12.06-23.24 11.84-22.46 11.62-21.68 11.5-20.83 11.38-19.97 11.33-19.14 11.28-18.31 11.28-17.77L11.28-17.77Q11.28-16.65 11.45-15.11 11.62-13.57 11.87-11.96 12.11-10.35 12.45-8.89 12.79-7.42 13.18-6.49L13.18-6.49 21.83-6.49 21.39-15.92Q24.76-15.67 28.15-15.7 31.54-15.72 34.91-15.72L34.91-15.72Q35.25-11.57 35.3-7.47 35.35-3.37 35.35 0.78ZM74.31-18.12L74.31-18.12Q67.92-17.77 61.57-17.55 55.22-17.33 48.83-17.09L48.83-17.09Q48.78-16.89 48.78-16.7 48.78-16.5 48.78-16.31L48.78-16.31Q48.78-14.65 49.53-13.77 50.29-12.89 51.41-12.52 52.54-12.16 53.9-12.11 55.27-12.06 56.44-12.06L56.44-12.06Q59.71-12.06 62.99-12.28 66.26-12.5 69.58-12.74L69.58-12.74 69.97-4.98Q66.75-4.83 63.55-4.74 60.35-4.64 57.13-4.64L57.13-4.64Q56.44-4.64 54.61-4.66 52.78-4.69 50.71-4.81 48.63-4.93 46.82-5.13 45.02-5.32 44.43-5.66L44.43-5.66Q42.92-6.54 42.06-7.91 41.21-9.28 40.74-10.89 40.28-12.5 40.11-14.18 39.94-15.87 39.89-17.43L39.89-17.43Q39.84-17.68 39.87-17.94 39.89-18.21 39.89-18.46L39.89-18.46Q39.89-21.04 40.45-23.27 41.01-25.49 42.53-27.59L42.53-27.59Q43.55-29.05 45.55-30.03 47.56-31.01 49.9-31.57 52.24-32.13 54.59-32.35 56.93-32.57 58.64-32.57L58.64-32.57Q60.15-32.57 62.35-32.3 64.55-32.03 66.72-31.4 68.89-30.76 70.65-29.76 72.41-28.76 73.04-27.29L73.04-27.29Q73.14-27 73.26-26.29 73.39-25.59 73.53-24.68 73.68-23.78 73.8-22.75 73.92-21.73 74.02-20.8 74.12-19.87 74.19-19.14 74.27-18.41 74.31-18.12ZM51.36-21.14L67.67-21.68Q67.38-23.83 66.57-25.07 65.77-26.32 64.57-26.93 63.38-27.54 61.84-27.71 60.3-27.88 58.54-27.88L58.54-27.88Q57.96-27.88 57.08-27.86 56.2-27.83 55.32-27.71 54.44-27.59 53.66-27.34 52.88-27.1 52.44-26.66L52.44-26.66Q52.1-26.37 51.88-25.85 51.66-25.34 51.51-24.76 51.36-24.17 51.29-23.61 51.22-23.05 51.22-22.66L51.22-22.66Q51.22-21.88 51.36-21.14L51.36-21.14ZM124.21-12.35L124.21-12.35Q124.21-10.3 124.14-8.33 124.07-6.35 123.87-4.35L123.87-4.35Q121.82-4.25 119.94-4.13 118.06-4 116.01-3.61L116.01-3.61Q116.6-7.13 116.6-10.69L116.6-10.69Q116.6-11.33 116.5-12.87 116.4-14.4 116.23-16.09 116.06-17.77 115.79-19.19 115.52-20.61 115.18-21.04L115.18-21.04Q114.94-21.34 114.45-21.48 113.96-21.63 113.42-21.7 112.89-21.78 112.35-21.8 111.81-21.83 111.47-21.83L111.47-21.83Q110.88-21.83 110.08-21.78 109.27-21.73 108.44-21.61 107.61-21.48 106.86-21.24 106.1-21 105.61-20.65L105.61-20.65Q105.37-20.46 105.2-19.63 105.02-18.8 104.93-17.63 104.83-16.46 104.76-15.09 104.68-13.72 104.63-12.52 104.58-11.33 104.58-10.42 104.58-9.52 104.58-9.28L104.58-9.28Q104.58-6.05 104.73-2.83L104.73-2.83Q103.32-2.78 101.97-2.73 100.63-2.69 99.21-2.69L99.21-2.69Q99.07-2.69 98.82-2.69 98.58-2.69 98.33-2.73L98.33-2.73Q98.04-2.73 97.75-2.78L97.75-2.78 97.75-6.35Q97.75-7.86 97.7-9.47 97.65-11.08 97.6-12.3L97.6-12.3Q97.55-13.13 97.46-14.45 97.36-15.77 97.02-17.02 96.67-18.26 96.02-19.17 95.36-20.07 94.18-20.07L94.18-20.07Q93.65-20.07 92.74-19.9 91.84-19.73 90.89-19.46 89.94-19.19 89.13-18.82 88.33-18.46 87.98-18.07L87.98-18.07Q87.89-17.97 87.76-16.97 87.64-15.97 87.54-14.53 87.45-13.09 87.32-11.4 87.2-9.72 87.13-8.25 87.06-6.79 86.98-5.74 86.91-4.69 86.91-4.49L86.91-4.49Q85.93-4.39 84.93-4.32 83.93-4.25 82.95-4.25L82.95-4.25Q82.03-4.25 81.1-4.3 80.17-4.35 79.29-4.44L79.29-4.44Q79.05-10.64 78.58-16.7 78.12-22.75 77.58-28.96L77.58-28.96Q78.95-29.1 80.29-29.22 81.64-29.35 83-29.35L83-29.35Q84.32-29.35 85.64-29.3 86.96-29.25 88.33-29.2L88.33-29.2 87.69-25Q89.94-26.81 92.01-27.69 94.09-28.56 96.97-28.56L96.97-28.56Q98.09-28.56 98.95-28.3 99.8-28.03 100.51-27.56 101.22-27.1 101.9-26.46 102.58-25.83 103.36-25.1L103.36-25.1Q104.24-26.46 105.39-27.27 106.54-28.08 107.86-28.52 109.17-28.96 110.64-29.08 112.1-29.2 113.57-29.2L113.57-29.2Q114.74-29.2 116.04-29.13 117.33-29.05 118.53-28.71 119.72-28.37 120.7-27.69 121.67-27 122.21-25.83L122.21-25.83Q122.85-24.41 123.24-22.71 123.63-21 123.85-19.19 124.07-17.38 124.14-15.63 124.21-13.87 124.21-12.35ZM163.18-9.62L163.18-9.62Q163.18-9.08 163.18-8.06 163.18-7.03 163.13-5.74 163.08-4.44 163.01-3.05 162.93-1.66 162.83-0.42 162.74 0.83 162.57 1.78 162.39 2.73 162.2 3.13L162.2 3.13Q161.37 4.44 160.66 5.15 159.95 5.86 159.12 6.15 158.29 6.45 157.24 6.47 156.19 6.49 154.78 6.49L154.78 6.49Q150.09 6.49 145.45 6.13 140.81 5.76 136.17 5.27L136.17 5.27 136.17-1.42Q136.61-1.42 138.1-1.44 139.59-1.46 141.59-1.51 143.6-1.56 145.84-1.66 148.09-1.76 150.04-1.9 151.99-2.05 153.41-2.25 154.83-2.44 155.17-2.73L155.17-2.73Q155.61-3.08 155.88-3.78 156.14-4.49 156.27-5.27 156.39-6.05 156.44-6.84 156.49-7.62 156.49-8.11L156.49-8.11Q156.49-8.59 156.49-9.03 156.49-9.47 156.44-10.01L156.44-10.01Q155.71-8.35 154.48-7.52 153.26-6.69 151.75-6.35 150.24-6.01 148.58-5.98 146.92-5.96 145.4-5.96L145.4-5.96Q142.23-5.96 139.27-6.23 136.32-6.49 134.05-7.62 131.78-8.74 130.39-11.01 129-13.28 129-17.29L129-17.29Q129-21.24 129.53-25.17 130.07-29.1 130.9-32.96L130.9-32.96 141.2-32.86Q140.37-29.79 139.74-26.61 139.1-23.44 139.1-20.21L139.1-20.21Q139.1-18.51 139.35-17.43 139.59-16.36 140.23-15.7 140.86-15.04 141.98-14.79 143.11-14.55 144.82-14.55L144.82-14.55Q145.5-14.55 146.5-14.65 147.5-14.75 148.55-14.92 149.6-15.09 150.55-15.38 151.51-15.67 152.04-16.11L152.04-16.11Q152.24-16.26 152.39-17.09 152.53-17.92 152.63-19.07 152.73-20.21 152.78-21.53 152.82-22.85 152.85-24.02 152.87-25.2 152.87-26.05 152.87-26.9 152.87-27.15L152.87-27.15Q152.87-28.81 152.87-30.44 152.87-32.08 152.78-33.74L152.78-33.74Q155.17-33.5 157.49-33.33 159.81-33.15 162.2-33.06L162.2-33.06Q162.39-28.32 162.61-23.68 162.83-19.04 163.08-14.31L163.08-14.31Q163.18-13.13 163.18-11.94 163.18-10.74 163.18-9.62Z" opacity="1" transform="matrix(1,0,0,1,0,0)" fill="#d63484" class="wordmark-text-0" data-fill-palette-color="primary" id="text-0"></path></svg></g></svg></g><g transform="matrix(1,0,0,1,0,80.45306467603164)"><svg viewBox="0 0 244.43135999999998 40.224059013998776" height="40.224059013998776" width="244.43135999999998"><g transform="matrix(1,0,0,1,0,0)"><svg width="244.43135999999998" viewBox="0.24 -38.09 243.01 39.99" height="40.224059013998776" data-palette-color="#000000"><path d="M17.43-34.28L17.43-34.28Q17.43-33.15 16.72-32.32 16.02-31.49 15.04-30.96L15.04-30.96Q14.16-30.42 13.23-29.81 12.3-29.2 11.52-28.44 10.74-27.69 10.25-26.76 9.77-25.83 9.77-24.66L9.77-24.66Q9.77-23.63 10.25-22.8 10.74-21.97 11.45-21.17 12.16-20.36 13.01-19.51 13.87-18.65 14.58-17.6 15.28-16.55 15.77-15.23 16.26-13.92 16.26-12.16L16.26-12.16Q16.26-10.94 15.75-9.4 15.23-7.86 14.36-6.3 13.48-4.74 12.28-3.27 11.08-1.81 9.74-0.66 8.4 0.49 6.93 1.2 5.47 1.9 4.1 1.9L4.1 1.9Q2.59 1.9 1.42 1.07 0.24 0.24 0.24-1.42L0.24-1.42Q0.24-2.54 0.78-3.49 1.32-4.44 2.1-5.32 2.88-6.2 3.83-7.03 4.79-7.86 5.57-8.69 6.35-9.52 6.88-10.42 7.42-11.33 7.42-12.35L7.42-12.35Q7.42-13.77 6.42-15.26 5.42-16.75 4.2-18.33 2.98-19.92 1.98-21.58 0.98-23.24 0.98-24.95L0.98-24.95Q0.98-27.05 2.1-29.37 3.22-31.69 4.98-33.62 6.74-35.55 8.94-36.82 11.13-38.09 13.28-38.09L13.28-38.09Q14.99-38.09 16.21-37.06 17.43-36.04 17.43-34.28ZM65.88 1.76L65.88 1.76Q62.41 1.76 60.48 0.85 58.56-0.05 57.6-1.71 56.65-3.37 56.46-5.71 56.26-8.06 56.26-10.94L56.26-10.94Q56.26-13.23 56.41-15.55 56.55-17.87 56.85-20.51L56.85-20.51Q56.16-20.51 55.77-20.48 55.38-20.46 55.14-20.46L55.14-20.46Q53.57-20.46 52.43-21.14 51.28-21.83 51.28-23.24L51.28-23.24Q51.28-24.12 51.94-24.8 52.6-25.49 53.62-25.98 54.65-26.46 55.85-26.76 57.04-27.05 58.12-27.15L58.12-27.15Q58.12-28.52 58.31-30.18 58.51-31.84 59.02-33.28 59.53-34.72 60.41-35.69 61.29-36.67 62.66-36.67L62.66-36.67Q63.44-36.67 64.05-36.21 64.66-35.74 65.05-35.03 65.44-34.33 65.64-33.45 65.83-32.57 65.83-31.74L65.83-31.74Q65.83-30.76 65.68-29.74 65.54-28.71 65.15-27.2L65.15-27.2Q65.98-27.29 66.27-27.32 66.56-27.34 66.81-27.34L66.81-27.34Q67.64-27.34 68.54-27.2 69.44-27.05 70.2-26.71 70.96-26.37 71.45-25.81 71.93-25.24 71.93-24.46L71.93-24.46Q71.93-23.58 71.23-22.9 70.52-22.22 69.44-21.73 68.37-21.24 67.15-20.97 65.93-20.7 64.85-20.61L64.85-20.61Q64.56-18.6 64.44-16.92 64.32-15.23 64.17-13.53L64.17-13.53Q64.07-12.7 64-11.84 63.93-10.99 63.93-10.11L63.93-10.11Q63.93-9.47 63.98-8.62 64.02-7.76 64.32-6.98 64.61-6.2 65.24-5.64 65.88-5.08 67-5.08L67-5.08Q67.69-5.08 68.42-5.2 69.15-5.32 69.88-5.32L69.88-5.32Q71.15-5.32 71.71-4.44 72.28-3.56 72.28-2.2L72.28-2.2Q72.28-1.17 71.67-0.42 71.06 0.34 70.13 0.81 69.2 1.27 68.05 1.51 66.9 1.76 65.88 1.76ZM117.89 1.42L117.89 1.42Q115.4 1.42 113.55 0.1 111.69-1.22 110.42-3.27 109.15-5.32 108.52-7.84 107.88-10.35 107.88-12.79L107.88-12.79Q107.88-15.38 108.52-18.14 109.15-20.9 110.47-23.17 111.79-25.44 113.84-26.88 115.89-28.32 118.72-28.32L118.72-28.32Q121.46-28.32 123.39-26.83 125.31-25.34 126.49-23.12 127.66-20.9 128.15-18.26 128.63-15.63 128.49-13.28L128.49-13.28Q128.34-10.69 127.68-8.06 127.02-5.42 125.75-3.32 124.48-1.22 122.53 0.1 120.58 1.42 117.89 1.42ZM118.38-20.65L118.38-20.65Q117.65-20.65 117.09-19.87 116.52-19.09 116.16-17.97 115.79-16.85 115.6-15.6 115.4-14.36 115.4-13.43L115.4-13.43Q115.4-12.26 115.62-10.89 115.84-9.52 116.23-8.37 116.62-7.23 117.18-6.47 117.75-5.71 118.48-5.71L118.48-5.71Q119.26-5.71 119.82-6.45 120.38-7.18 120.72-8.3 121.07-9.42 121.21-10.77 121.36-12.11 121.36-13.28L121.36-13.28Q121.36-14.36 121.16-15.65 120.97-16.94 120.6-18.07 120.24-19.19 119.67-19.92 119.11-20.65 118.38-20.65ZM183.28-18.26L183.28-18.26Q182.6-18.21 182.11-18.38 181.62-18.55 181.13-18.75L181.13-18.75Q180.7-18.95 180.26-19.12 179.82-19.29 179.28-19.24L179.28-19.24Q178.3-19.19 177.55-18.7 176.79-18.21 176.18-17.48 175.57-16.75 175.13-15.84 174.69-14.94 174.45-14.06L174.45-14.06Q174.3-13.48 174.23-12.28 174.15-11.08 174.15-9.72L174.15-9.72Q174.1-8.3 174.1-7.03 174.1-5.76 174.01-5.03L174.01-5.03Q173.96-4.25 173.76-3.2 173.57-2.15 173.15-1.22 172.74-0.29 172.05 0.34 171.37 0.98 170.29 0.98L170.29 0.98Q169.46 0.98 168.85 0.49 168.24 0 167.83-0.81 167.41-1.61 167.15-2.69 166.88-3.76 166.73-4.88L166.73-4.88Q166.58-6.05 166.51-7.23 166.44-8.4 166.41-9.45 166.39-10.5 166.41-11.38 166.44-12.26 166.44-12.79L166.44-12.79Q166.39-14.5 166.27-16.24 166.14-17.97 166.14-19.68L166.14-19.68Q166.14-20.75 166.24-22.07 166.34-23.39 166.78-24.54 167.22-25.68 168.07-26.46 168.93-27.25 170.44-27.25L170.44-27.25Q171.27-27.25 171.86-26.71 172.44-26.17 172.81-25.39 173.18-24.61 173.37-23.73 173.57-22.85 173.62-22.12L173.62-22.12Q174.79-24.02 176.25-25.22 177.72-26.42 180.06-26.51L180.06-26.51Q181.23-26.56 182.38-26.29 183.53-26.03 184.48-25.42 185.43-24.8 186.04-23.83 186.65-22.85 186.7-21.53L186.7-21.53Q186.8-19.97 185.77-19.14 184.75-18.31 183.28-18.26ZM243.25-8.69L243.25-8.69Q243.25-7.03 242.2-5.44 241.15-3.86 239.57-2.61 237.98-1.37 236.17-0.61 234.37 0.15 232.85 0.15L232.85 0.15Q230.27 0.15 228.24-1.15 226.21-2.44 224.85-4.44 223.48-6.45 222.77-8.86 222.06-11.28 222.06-13.57L222.06-13.57Q222.06-16.02 222.75-18.8 223.43-21.58 224.82-23.93 226.21-26.27 228.34-27.83 230.46-29.39 233.39-29.39L233.39-29.39Q235.05-29.39 236.57-28.83 238.08-28.27 239.2-27.25 240.32-26.22 241.01-24.8 241.69-23.39 241.69-21.63L241.69-21.63Q241.69-19.34 240.72-17.33 239.74-15.33 238.13-13.87 236.52-12.4 234.42-11.5 232.32-10.6 230.12-10.5L230.12-10.5Q230.32-9.08 231.27-8.45 232.22-7.81 233.54-7.81L233.54-7.81Q234.51-7.81 235.44-8.3 236.37-8.79 237.25-9.4 238.13-10.01 238.98-10.5 239.84-10.99 240.72-10.99L240.72-10.99Q241.69-10.99 242.47-10.35 243.25-9.72 243.25-8.69ZM235.34-20.65L235.34-20.65Q235.34-21.29 235-21.97 234.66-22.66 233.93-22.66L233.93-22.66Q232.85-22.66 232.12-22.09 231.39-21.53 230.9-20.68 230.41-19.82 230.14-18.85 229.88-17.87 229.83-17.04L229.83-17.04Q230.51-17.19 231.46-17.43 232.41-17.68 233.27-18.09 234.12-18.51 234.73-19.14 235.34-19.78 235.34-20.65Z" opacity="1" transform="matrix(1,0,0,1,0,0)" fill="#000000" class="slogan-text-1" data-fill-palette-color="secondary" id="text-1"></path></svg></g></svg></g></svg></g></svg></g></svg></g></svg></g></svg></g><g><path d="M245.816 0c68.262 0 123.6 55.338 123.6 123.6 0 68.262-55.338 123.6-123.6 123.6-43.131 0-81.103-22.092-103.216-55.579l3.536 0c21.732 31.784 58.27 52.644 99.68 52.644 66.642 0 120.665-54.024 120.665-120.665 0-66.642-54.024-120.665-120.665-120.665-41.41 0-77.948 20.859-99.68 52.644l-3.536 0c22.113-33.486 60.084-55.579 103.216-55.579z" fill="#000000" stroke="transparent" data-fill-palette-color="tertiary"></path></g></svg></g><defs></defs></svg><rect width="395.52" height="247.2" fill="none" stroke="none" visibility="hidden"></rect></g></svg></g></svg>